:SAMPLES-PER-SECOND 30
:FULLY-SPECIFIED
:DEGREES
309
root  -30.7473 34.0589 10.395 -158.991 77.0768 -163.21
RightUpLeg  -11.4304 -11.7568 8.11395
RightLeg  18.5888 -8.39776 -2.22568
RightFoot  -4.39501 0.00837269 0.815842
RightToes  -13.3287 -0.0474721 -0.121141
Spine  0.4842 -0.220082 2.77577
Spine1  0.886671 -0.412375 5.96258
HEad  -64.3246 5.71958 4.07375
LeftShoulder1  -1.94126e-019 -3.10601e-018 -2.51263e-017
LeftArm  -11.7521 21.7624 -84.3559
LeftForeArm  32.6408 -20.9019 -3.39922
LeftHand  -0.443581 -1.93651 7.21743
RightShoulder  -4.96962e-017 0 -2.36833e-017
RightArm  -31.8846 -20.2431 70.723
RightForeArm  59.7181 11.2641 1.52003
RightHand  -0.357395 -1.4226 -10.3436
LeftUpLeg  -20.2597 10.8818 10.377
LeftLeg  30.1582 18.2065 8.84093
LeftFoot  5.48958 -0.0920851 2.08215
LeftToes  -24.8836 1.49739e-006 1.00523e-007
310
root  -30.6706 34.1553 10.5196 -159.687 77.6594 -163.962
RightUpLeg  -10.4956 -11.0844 8.00023
RightLeg  16.807 -8.62527 -2.0012
RightFoot  -3.66423 0.00379231 0.719634
RightToes  -13.0666 -0.04615 -0.120012
Spine  0.205656 -0.141653 2.71127
Spine1  0.338783 -0.22638 5.83946
HEad  -62.5644 5.64718 4.75988
LeftShoulder1  -1.94126e-019 -3.10601e-018 -2.51263e-017
LeftArm  -12.6583 22.2757 -84.7251
LeftForeArm  33.1381 -20.0101 -3.28587
LeftHand  -0.44362 -1.93326 7.221
RightShoulder  -4.96962e-017 0 -2.36833e-017
RightArm  -30.5349 -20.4387 70.8367
RightForeArm  58.2604 12.0037 1.47509
RightHand  -0.352205 -1.36136 -10.0424
LeftUpLeg  -19.2053 8.70442 10.3572
LeftLeg  28.8487 20.6935 9.42299
LeftFoot  6.41043 -0.144723 2.7455
LeftToes  -24.5735 1.49739e-006 1.00523e-007
311
root  -30.5985 34.2676 10.636 -160.402 78.361 -165.148
RightUpLeg  -9.76439 -10.6428 7.82857
RightLeg  14.5779 -8.4896 -1.62565
RightFoot  -2.7016 -0.000956311 0.564527
RightToes  -12.8981 -0.0450375 -0.120693
Spine  -0.25061 -0.0252932 2.60885
Spine1  -0.55971 0.0394233 5.65981
HEad  -60.3242 5.35084 5.34758
LeftShoulder1  -1.94126e-019 -3.10601e-018 -2.51263e-017
LeftArm  -13.3684 23.3983 -84.9792
LeftForeArm  32.7671 -19.8417 -3.25154
LeftHand  -0.439529 -1.74882 7.26049
RightShoulder  -4.96962e-017 0 -2.36833e-017
RightArm  -28.2862 -21.0434 71.0324
RightForeArm  56.2096 13.0865 1.37485
RightHand  -0.338269 -1.32102 -9.54703
LeftUpLeg  -18.345 7.18753 10.1328
LeftLeg  26.8935 22.0476 9.1412
LeftFoot  7.04947 -0.186359 3.18639
LeftToes  -24.6277 1.49739e-006 1.00523e-007
312
root  -30.5398 34.353 10.7439 -160.533 79.0854 -165.862
RightUpLeg  -9.23733 -10.6058 7.75707
RightLeg  12.4591 -7.87453 -1.20944
RightFoot  -1.79003 -0.00319351 0.406435
RightToes  -13.043 -0.0441224 -0.122285
Spine  -0.722611 0.107397 2.54225
Spine1  -1.48913 0.338431 5.5497
HEad  -58.7118 5.09835 5.81376
LeftShoulder1  -1.94126e-019 -3.10601e-018 -2.51263e-017
LeftArm  -14.0767 24.6535 -85.1801
LeftForeArm  32.0478 -20.1503 -3.27402
LeftHand  -0.435133 -1.71817 7.34521
RightShoulder  -4.96962e-017 0 -2.36833e-017
RightArm  -25.9805 -21.5488 71.1953
RightForeArm  54.7795 14.0777 1.26512
RightHand  -0.335891 -1.20505 -9.22843
LeftUpLeg  -17.5154 6.17452 10.0676
LeftLeg  23.9601 19.4646 7.01563
LeftFoot  7.12964 -0.163019 2.77787
LeftToes  -27.2429 1.49739e-006 1.00523e-007
313
root  -30.5165 34.4021 10.8391 -160.606 79.6936 -166.439
RightUpLeg  -8.99514 -11.0691 7.71812
RightLeg  10.9511 -6.85361 -0.869822
RightFoot  -1.09794 -0.00320638 0.287253
RightToes  -13.5701 -0.0433927 -0.123886
Spine  -1.0581 0.177189 2.52623
Spine1  -2.1502 0.512949 5.52438
HEad  -58.3388 5.06779 6.04597
LeftShoulder1  -1.94126e-019 -3.10601e-018 -2.51263e-017
LeftArm  -14.742 25.6274 -85.3808
LeftForeArm  31.5409 -20.5487 -3.28461
LeftHand  -0.437312 -1.82382 7.14962
RightShoulder  -4.96962e-017 0 -2.36833e-017
RightArm  -24.2688 -21.6453 71.3318
RightForeArm  54.0406 14.9785 1.16851
RightHand  -0.343671 -0.903005 -9.02393
LeftUpLeg  -17.0105 5.21248 9.96273
LeftLeg  21.5636 15.4259 4.90207
LeftFoot  7.01831 -0.122791 2.13609
LeftToes  -27.8668 1.49739e-006 1.00523e-007
